<svg xmlns="http://www.w3.org/2000/svg" xmlns:xlink="http://www.w3.org/1999/xlink" width="422" height="408" viewBox="0 0 422 408">
  <defs>
    <clipPath id="clip-path">
      <rect id="Прямоугольник_595" data-name="Прямоугольник 595" width="422" height="408" transform="translate(169 227)" fill="#fff"/>
    </clipPath>
    <linearGradient id="linear-gradient" x1="0.605" y1="-0.187" x2="-0.084" y2="1.641" gradientUnits="objectBoundingBox">
      <stop offset="0" stop-color="#ff4f9a"/>
      <stop offset="1" stop-color="#ff9057"/>
    </linearGradient>
    <linearGradient id="linear-gradient-2" x1="0.255" y1="-0.022" x2="1.993" y2="2.156" gradientUnits="objectBoundingBox">
      <stop offset="0" stop-color="#665eff"/>
      <stop offset="1" stop-color="#c840e9"/>
    </linearGradient>
  </defs>
  <g id="Группа_масок_15" data-name="Группа масок 15" transform="translate(-169 -227)" clip-path="url(#clip-path)">
    <g id="Сгруппировать_46" data-name="Сгруппировать 46">
      <path id="Контур_445" data-name="Контур 445" d="M277.159,4.845C188.147-32.609-8.236,157.16.268,227.753S151.906,375.3,266.089,377.875,366.17,42.3,277.159,4.845Z" transform="matrix(0.545, 0.839, -0.839, 0.545, 428.549, 127.2)" fill="url(#linear-gradient)"/>
      <g id="Сгруппировать_45" data-name="Сгруппировать 45" transform="translate(178.654 256.165)">
        <path id="Контур_420" data-name="Контур 420" d="M873.956,731.458c-8.17,10.941-25.128,12.092-25.128,12.092s-3.713-16.587,4.457-27.528,25.128-12.092,25.128-12.092S882.126,720.517,873.956,731.458Z" transform="translate(-535.72 -375.918)" fill="#e6e6e6"/>
        <path id="Контур_421" data-name="Контур 421" d="M817.692,745.88c5.391,7.22,16.581,7.979,16.581,7.979s2.45-10.945-2.941-18.165-16.581-7.979-16.581-7.979S812.3,738.661,817.692,745.88Z" transform="translate(-521.073 -386.228)" fill="#e6e6e6"/>
        <path id="Контур_422" data-name="Контур 422" d="M476.342,649.134H330.318v-1.193h146.24Z" transform="translate(-143.173 -280.844)" fill="#3f3d56"/>
        <rect id="Прямоугольник_581" data-name="Прямоугольник 581" width="327.664" height="182.036" transform="translate(0 10.539)" fill="#e6e6e6"/>
        <path id="Контур_423" data-name="Контур 423" d="M328.406,321.409H620.284V175.161H328.406Z" transform="translate(-310.513 -146.729)" fill="#fff"/>
        <rect id="Прямоугольник_582" data-name="Прямоугольник 582" width="326.706" height="16.287" transform="translate(0.479 0)" fill="url(#linear-gradient-2)"/>
        <rect id="Прямоугольник_583" data-name="Прямоугольник 583" width="59.401" height="42.156" transform="translate(34.453 80)" fill="#e6e6e6"/>
        <rect id="Прямоугольник_584" data-name="Прямоугольник 584" width="163.832" height="4.79" transform="translate(129.379 80)" fill="#e6e6e6"/>
        <rect id="Прямоугольник_585" data-name="Прямоугольник 585" width="163.832" height="4.79" transform="translate(129.379 99.162)" fill="#e6e6e6"/>
        <rect id="Прямоугольник_586" data-name="Прямоугольник 586" width="163.832" height="4.79" transform="translate(129.379 118.323)" fill="#e6e6e6"/>
        <path id="Контур_424" data-name="Контур 424" d="M713.926,469.928l-1.6,9.189s-7.591,21.174-5.593,41.148,3.6,33.958,3.6,33.958-5.993,50.337-3.6,68.315c0,0,6.392,8.789,14.782-.4l6.392-66.317L734.7,508.68l5.993,52.734,3.995,59.925s5.593,5.993,13.983.8l-.8-67.915s7.191-57.528,5.992-62.322-9.188-23.571-9.188-23.571Z" transform="translate(-474.25 -273.8)" fill="#262626"/>
        <path id="Контур_425" data-name="Контур 425" d="M711.347,740.3l.4,8.39s-6.089,9.5,1.5,9.5h0c5.489-.017,10.451,2.453,9.8-3l-.916-7.7-1.6-8.39Z" transform="translate(-475.666 -391.163)" fill="#2f2e41"/>
        <path id="Контур_426" data-name="Контур 426" d="M785.522,740.3l-.4,8.39s6.089,9.5-1.5,9.5h0c-5.489-.017-10.451,2.453-9.8-3l.916-7.7,1.6-8.39Z" transform="translate(-503.548 -391.163)" fill="#2f2e41"/>
        <ellipse id="Эллипс_32" data-name="Эллипс 32" cx="12.784" cy="12.784" rx="12.784" ry="12.784" transform="translate(245.468 101.247)" fill="#9f616a"/>
        <path id="Контур_427" data-name="Контур 427" d="M739.861,340.137s1.6,18.377-3.2,21.174,19.975,1.6,19.975,1.6-5.593-21.573-5.193-23.97Z" transform="translate(-487.201 -217.716)" fill="#ffb8b8"/>
        <path id="Контур_428" data-name="Контур 428" d="M747.638,359.41s-15.98-7.191-38.352,0c0,0-9.788,2.6-10.986,5.793s13.383,39.75,11.785,46.142a34.693,34.693,0,0,0-.8,11.985s35.156-4.794,43.545-1.2c0,0-3.2-10.387-2.4-17.578s7.59-40.749,7.59-40.749A18.487,18.487,0,0,0,747.638,359.41Z" transform="translate(-470.809 -225.204)" fill="#6c63ff"/>
        <path id="Контур_429" data-name="Контур 429" d="M808.167,529.677s-5.993,18.377.4,18.776,3.6-13.982,3.6-13.982l-.8-4.794Z" transform="translate(-517.356 -300.39)" fill="#9f616a"/>
        <path id="Контур_430" data-name="Контур 430" d="M787.741,372.009l8.389-2.4s4.794,3.6,4.794,8.39-.8,35.556-.8,35.556l5.992,45.943-9.189,3.2-10.786-49.538Z" transform="translate(-508.914 -231.011)" fill="#6c63ff"/>
        <path id="Контур_431" data-name="Контур 431" d="M690.953,529.677s5.992,18.377-.4,18.776-3.6-13.982-3.6-13.982l.8-4.794Z" transform="translate(-465.659 -300.39)" fill="#9f616a"/>
        <path id="Контур_432" data-name="Контур 432" d="M701.57,372.009l-8.389-2.4s-4.794,3.6-4.794,8.39.8,35.556.8,35.556L683.193,459.5l9.189,3.2,10.786-49.538Z" transform="translate(-464.292 -231.011)" fill="#6c63ff"/>
        <path id="Контур_433" data-name="Контур 433" d="M743.915,293.036s-11.186-2-13.583,12.784-1.2,20.375-5.193,21.973-5.193,3.6-4.395,6.792,3.6,4.395-.4,10.387,8.789,4.395,19.176,9.189,34.357-2,31.161-7.59-8.389-3.2-5.992-9.588,3.2-7.59,0-11.586S766.287,296.631,743.915,293.036Z" transform="translate(-480.07 -197.781)" fill="#2f2e41"/>
      </g>
    </g>
  </g>
</svg>
