<svg xmlns="http://www.w3.org/2000/svg" xmlns:xlink="http://www.w3.org/1999/xlink" width="475" height="473" viewBox="0 0 475 473">
  <defs>
    <style>
      .cls-1, .cls-6 {
        fill: #fff;
      }

      .cls-1 {
        opacity: 0.35;
      }

      .cls-2 {
        clip-path: url(#clip-path);
      }

      .cls-3 {
        fill: url(#linear-gradient);
      }

      .cls-4 {
        stroke: #707070;
        fill: url(#linear-gradient-2);
      }

      .cls-5 {
        fill: #3f3d56;
      }

      .cls-7 {
        fill: #e6e6e6;
      }

      .cls-8 {
        fill: #ffb9b9;
      }

      .cls-9 {
        fill: #2f2e41;
      }

      .cls-10 {
        fill: #6c63ff;
      }

      .cls-11 {
        fill: #f2f2f2;
      }

      .cls-12 {
        stroke: none;
      }

      .cls-13 {
        fill: none;
      }

      .cls-14 {
        filter: url(#shadow);
      }
    </style>
    <clipPath id="clip-path">
      <rect id="Прямоугольник_596" data-name="Прямоугольник 596" class="cls-1" width="475" height="473" transform="translate(701 183)"/>
    </clipPath>
    <linearGradient id="linear-gradient" x1="0.605" y1="-0.187" x2="-0.084" y2="1.641" gradientUnits="objectBoundingBox">
      <stop offset="0" stop-color="#ff4f9a"/>
      <stop offset="1" stop-color="#ff9057"/>
    </linearGradient>
    <linearGradient id="linear-gradient-2" x1="1.203" y1="-0.313" x2="-0.101" y2="1.118" gradientUnits="objectBoundingBox">
      <stop offset="0" stop-color="#dd2476"/>
      <stop offset="0.528" stop-color="#ef486e"/>
      <stop offset="1" stop-color="#ff6768"/>
    </linearGradient>
    <filter id="shadow" x="83" y="25" width="272" height="469" filterUnits="userSpaceOnUse">
      <feOffset dx="30" dy="30" input="SourceAlpha"/>
      <feGaussianBlur stdDeviation="15" result="blur"/>
      <feFlood flood-opacity="0.161"/>
      <feComposite operator="in" in2="blur"/>
      <feComposite in="SourceGraphic"/>
    </filter>
  </defs>
  <g id="Группа_масок_16" data-name="Группа масок 16" class="cls-2" transform="translate(-701 -183)">
    <g id="Сгруппировать_47" data-name="Сгруппировать 47">
      <path id="Контур_452" data-name="Контур 452" class="cls-3" d="M314.79,5.5C213.693-37.037-9.354,178.5.3,258.677s172.227,167.577,301.914,170.5S415.888,48.043,314.79,5.5Z" transform="matrix(-0.788, 0.616, -0.616, -0.788, 1258.48, 448.213)"/>
      <g class="cls-14" transform="matrix(1, 0, 0, 1, 701, 183)">
        <g id="shadow-2" data-name="shadow" class="cls-4" transform="translate(98 40)">
          <rect class="cls-12" width="182" height="379" rx="26"/>
          <rect class="cls-13" x="0.5" y="0.5" width="181" height="378" rx="25.5"/>
        </g>
      </g>
      <g id="Сгруппировать_45" data-name="Сгруппировать 45" transform="translate(788.664 210.248)">
        <path id="Контур_380" data-name="Контур 380" class="cls-5" d="M495.983,181.841h-2.213V121.205a35.094,35.094,0,0,0-35.094-35.094H330.21a35.094,35.094,0,0,0-35.094,35.094V453.856A35.094,35.094,0,0,0,330.21,488.95H458.675a35.094,35.094,0,0,0,35.094-35.094V225h2.213Z" transform="translate(-295.116 -86.111)"/>
        <path id="Контур_381" data-name="Контур 381" class="cls-6" d="M494.113,128.814V460.976a26.207,26.207,0,0,1-22.6,25.96,25.888,25.888,0,0,1-3.606.249H338.818a25.885,25.885,0,0,1-3.609-.249,26.206,26.206,0,0,1-22.595-25.96V128.814a26.21,26.21,0,0,1,26.209-26.209h15.66a12.446,12.446,0,0,0,11.53,17.154h73.6a12.444,12.444,0,0,0,11.524-17.154H467.9a26.21,26.21,0,0,1,26.209,26.209Z" transform="translate(-302.928 -93.475)"/>
        <path id="Контур_382" data-name="Контур 382" class="cls-7" d="M494.113,597.945v84.19a26.207,26.207,0,0,1-22.6,25.961h-136.3a26.207,26.207,0,0,1-22.595-25.96v-84.19Z" transform="translate(-302.928 -314.635)"/>
        <ellipse id="Эллипс_26" data-name="Эллипс 26" class="cls-6" cx="17.336" cy="17.336" rx="17.336" ry="17.336" transform="translate(83.098 321.049)"/>
        <path id="Контур_383" data-name="Контур 383" class="cls-7" d="M183.459,603.783H174.1v-9.362h-2.081v9.362h-9.362v2.08h9.362v9.362H174.1v-9.362h9.361Z" transform="translate(-72.622 -265.397)"/>
        <path id="Контур_384" data-name="Контур 384" class="cls-8" d="M521.993,500.548v15.571l-8,9.258s-3.367-1.262-3.367-9.679l-1.262-12.2Z" transform="translate(-390.775 -271.149)"/>
        <path id="Контур_385" data-name="Контур 385" class="cls-8" d="M516.459,510.591s13.046-8.837,13.467-11.783,12.512-16.206,15.992-8c3.284,7.749-10,14.391-10,14.391s-9.358,17.171-15.67,16.751S513.933,513.537,516.459,510.591Z" transform="translate(-393.237 -265.621)"/>
        <path id="Контур_386" data-name="Контур 386" class="cls-8" d="M207.912,613.633l-1.263,7.576,6.734-1.684v-5.892Z" transform="translate(-92.265 -273.975)"/>
        <path id="Контур_387" data-name="Контур 387" class="cls-9" d="M501.261,704.877s7.782-4.611,8.1-2.516,3.684,10.091,5.367,10.932,3.787,10.1,0,9.679c-2.934-.326-13.693-5.953-18.4-8.474a2.57,2.57,0,0,1-1.1-3.358,5.3,5.3,0,0,0,.563-1.634C495.79,708.665,501.261,704.877,501.261,704.877Z" transform="translate(-384.352 -361.011)"/>
        <path id="Контур_388" data-name="Контур 388" class="cls-9" d="M466.9,547.577s30.721,14.308,27.775,25.25-13.888,57.233-13.888,57.233-12.2,2.946-13.046,0,8-48.817,7.154-50.5-16.413-12.625-16.413-12.625L426.5,553.468l13.467-12.625Z" transform="translate(-353.775 -289.14)"/>
        <path id="Контур_389" data-name="Контур 389" class="cls-8" d="M240.413,618.2l3.788,9.679-6.734,2.946-4.208-7.575Z" transform="translate(-104.145 -276.012)"/>
        <path id="Контур_390" data-name="Контур 390" class="cls-8" d="M484.97,418.274s-3.788,5.05-.842,7.575.842,11.783.842,11.783l-3.788,10.521-15.15-2.946V427.953l.842-8.417s7.575-7.154,8.417-12.625S484.97,418.274,484.97,418.274Z" transform="translate(-371.427 -228.854)"/>
        <path id="Контур_391" data-name="Контур 391" class="cls-9" d="M438.151,546.926s19.779,21.883,19.779,22.725,10.521,18.1,10.521,18.1l20.621,45.871s-8,10.942-11.363,10.1-27.354-49.658-27.354-49.658-4.208-10.942-15.571-13.467-20.2-11.363-15.992-21.463S438.151,546.926,438.151,546.926Z" transform="translate(-349.859 -291.856)"/>
        <ellipse id="Эллипс_27" data-name="Эллипс 27" class="cls-8" cx="13.467" cy="13.467" rx="13.467" ry="13.467" transform="translate(100.076 165.432)"/>
        <path id="Контур_392" data-name="Контур 392" class="cls-10" d="M474.025,446.812s-1.683,9.679-3.367,10.521-2.946,3.788-6.733-.421-7.154-12.625-7.154-12.625l-13.046,15.992-1.262,44.188s14.729-3.787,19.358,0,14.729,3.367,14.729,3.367l-2.1-8.417,1.683-14.308-.421-13.046-.421-9.259Z" transform="translate(-360.903 -246.03)"/>
        <path id="Контур_393" data-name="Контур 393" class="cls-5" d="M496.3,436.052s5.691,2.875,6.112,4.559,8,5.05,8,5.05,2.946,2.946,2.946,4.629-10.1,21.041-10.1,21.041-2.1,13.046-1.263,15.571-1.683,12.2-1.683,12.2l5.05,5.892h-4.629s-5.05-2.525-5.05-3.787.842-10.1,1.263-13.888.421-17.254-.421-21.883-.421-16.833-.421-19.779S496.3,436.052,496.3,436.052Z" transform="translate(-384.665 -242.353)"/>
        <path id="Контур_394" data-name="Контур 394" class="cls-5" d="M445.427,424.507s-1.894.428-7.365,2.111-13.888,4.208-16.833,7.575a52.168,52.168,0,0,0-5.471,8l1.683,30.3s-3.367,6.313-2.946,9.679,3.788,3.788,1.263,10.942-7.575,13.467-2.946,14.308,16.833-2.1,22.3-.421,11.783-6.312,11.783-6.312-8.417.842-7.154-2.525,15.15-41.242,12.2-49.658S445.427,424.507,445.427,424.507Z" transform="translate(-346.824 -237.198)"/>
        <path id="Контур_395" data-name="Контур 395" class="cls-5" d="M515.968,457.972l2.1,1.683s5.892,21.042,4.208,23.146-15.15,6.733-15.992,3.788S515.968,457.972,515.968,457.972Z" transform="translate(-389.379 -252.14)"/>
        <path id="Контур_396" data-name="Контур 396" class="cls-8" d="M406.2,484.582s-6.312,18.1-6.312,23.146.842,34.509.842,34.509,4.208,17.682,13.046,12.632-3.788-13.474-3.788-13.474.421-33.246,3.788-37.875,4.629-11.363,4.629-11.363Z" transform="translate(-341.894 -264.021)"/>
        <path id="Контур_397" data-name="Контур 397" class="cls-9" d="M533.941,719.6s6.312-3.367,7.575-.842,8,16.412,7.154,18.1-5.471,8.417-10.942,6.733-5.892-10.521-5.892-10.521l-.421-10.1Z" transform="translate(-400.62 -368.155)"/>
        <path id="Контур_398" data-name="Контур 398" class="cls-9" d="M487.962,389.631c-.928.437-2.028.7-2.611,1.541a13,13,0,0,0-.79,2.128,3.01,3.01,0,0,1-3.872,1.416,3.338,3.338,0,0,0-1.362-2.068,1.983,1.983,0,0,0-2.355.129c-.867.827-.56,2.269-.965,3.4a7.173,7.173,0,0,1-1.542,2.115,21.743,21.743,0,0,1-2.764,3.174c-1.109.865-2.791,1.239-3.893.366a3.326,3.326,0,0,1-.894-3.251c.225-1.161.783-2.23,1.1-3.37,1.023-3.7-.608-7.659-.1-11.468.646-4.881,4.8-8.737,9.426-10.41a11.026,11.026,0,0,1,6.085-.645c2.118.473,3.927,1.821,5.955,2.592,2.169.825,4.528.969,6.8,1.451s4.606,1.414,5.923,3.325c.919,1.332,1.234,2.987,2,4.415a7.921,7.921,0,0,0,4.012,3.595l-2.4-.137a7.071,7.071,0,0,0,1.912,2.79,5.13,5.13,0,0,1-3.322-.439,3.61,3.61,0,0,0,1.238,2.589,10.441,10.441,0,0,1-5.353-1.13c-.764-.484-1.387-1.159-2.106-1.708a15.586,15.586,0,0,0-5.288-2.258c-.973-.279-2.145-.668-3.025-.042C489.026,388.249,488.91,389.185,487.962,389.631Z" transform="translate(-371.783 -213.985)"/>
        <path id="Контур_399" data-name="Контур 399" class="cls-5" d="M419.177,447.328l-6.312,5.05-8.417,19.358s11.783,9.258,14.729,8,8-23.567,8-23.567Z" transform="translate(-343.931 -247.387)"/>
        <ellipse id="Эллипс_28" data-name="Эллипс 28" class="cls-11" cx="0.244" cy="0.208" rx="0.244" ry="0.208" transform="translate(155.949 228.99) rotate(-50.158)"/>
        <path id="Контур_400" data-name="Контур 400" class="cls-6" d="M564.527,432.7a2.735,2.735,0,0,0-2.733,2.732v45.752a2.736,2.736,0,0,0,2.733,2.733H748.969a2.736,2.736,0,0,0,2.732-2.733V435.432a2.735,2.735,0,0,0-2.732-2.732Z" transform="translate(-414.183 -240.856)"/>
        <path id="Контур_401" data-name="Контур 401" class="cls-7" d="M564.527,432.7a2.735,2.735,0,0,0-2.733,2.732v45.752a2.736,2.736,0,0,0,2.733,2.733H748.969a2.736,2.736,0,0,0,2.732-2.733V435.432a2.735,2.735,0,0,0-2.732-2.732Z" transform="translate(-414.183 -240.856)"/>
        <path id="Контур_402" data-name="Контур 402" class="cls-6" d="M567.347,483.322H751.106V438.253H567.347Z" transform="translate(-416.662 -243.336)"/>
        <ellipse id="Эллипс_29" data-name="Эллипс 29" class="cls-10" cx="14.345" cy="14.345" rx="14.345" ry="14.345" transform="translate(159.908 203.106)"/>
        <path id="Контур_403" data-name="Контур 403" class="cls-7" d="M667.852,461.686a2.391,2.391,0,0,0,0,4.782H780.567a2.391,2.391,0,0,0,0-4.782Z" transform="translate(-460.468 -253.798)"/>
        <path id="Контур_404" data-name="Контур 404" class="cls-7" d="M667.852,487.6a2.391,2.391,0,0,0,0,4.782H780.567a2.391,2.391,0,0,0,0-4.782Z" transform="translate(-460.468 -265.369)"/>
        <path id="Контур_405" data-name="Контур 405" class="cls-6" d="M351.81,182.945a2.019,2.019,0,0,0-2.016,2.016v33.764a2.019,2.019,0,0,0,2.016,2.017H487.923a2.019,2.019,0,0,0,2.017-2.017V184.961a2.019,2.019,0,0,0-2.017-2.016Z" transform="translate(-319.529 -129.345)"/>
        <path id="Контур_406" data-name="Контур 406" class="cls-7" d="M351.81,182.945a2.019,2.019,0,0,0-2.016,2.016v33.764a2.019,2.019,0,0,0,2.016,2.017H487.923a2.019,2.019,0,0,0,2.017-2.017V184.961a2.019,2.019,0,0,0-2.017-2.016Z" transform="translate(-319.529 -129.345)"/>
        <path id="Контур_407" data-name="Контур 407" class="cls-6" d="M353.892,220.3H489.5v-33.26H353.892Z" transform="translate(-321.358 -131.175)"/>
        <ellipse id="Эллипс_30" data-name="Эллипс 30" class="cls-10" cx="10.586" cy="10.586" rx="10.586" ry="10.586" transform="translate(39.34 61.911)"/>
        <path id="Контур_408" data-name="Контур 408" class="cls-7" d="M428.062,204.336a1.764,1.764,0,0,0,0,3.529h83.179a1.764,1.764,0,0,0,0-3.529Z" transform="translate(-353.686 -138.896)"/>
        <path id="Контур_409" data-name="Контур 409" class="cls-7" d="M428.062,223.462a1.764,1.764,0,0,0,0,3.529h83.179a1.764,1.764,0,0,0,0-3.529Z" transform="translate(-353.686 -147.436)"/>
        <path id="Контур_410" data-name="Контур 410" class="cls-6" d="M351.81,291.945a2.019,2.019,0,0,0-2.016,2.016v33.764a2.019,2.019,0,0,0,2.016,2.017H487.923a2.019,2.019,0,0,0,2.017-2.017V293.961a2.019,2.019,0,0,0-2.017-2.017Z" transform="translate(-319.529 -178.012)"/>
        <path id="Контур_411" data-name="Контур 411" class="cls-7" d="M351.81,291.945a2.019,2.019,0,0,0-2.016,2.016v33.764a2.019,2.019,0,0,0,2.016,2.017H487.923a2.019,2.019,0,0,0,2.017-2.017V293.961a2.019,2.019,0,0,0-2.017-2.017Z" transform="translate(-319.529 -178.012)"/>
        <path id="Контур_412" data-name="Контур 412" class="cls-6" d="M353.892,329.3H489.5v-33.26H353.892Z" transform="translate(-321.358 -179.842)"/>
        <ellipse id="Эллипс_31" data-name="Эллипс 31" class="cls-10" cx="10.586" cy="10.586" rx="10.586" ry="10.586" transform="translate(39.34 122.245)"/>
        <path id="Контур_413" data-name="Контур 413" class="cls-7" d="M428.062,313.336a1.764,1.764,0,0,0,0,3.529h83.179a1.764,1.764,0,0,0,0-3.529Z" transform="translate(-353.686 -187.563)"/>
        <path id="Контур_414" data-name="Контур 414" class="cls-7" d="M428.062,332.462a1.764,1.764,0,1,0,0,3.529h83.179a1.764,1.764,0,0,0,0-3.529Z" transform="translate(-353.686 -196.102)"/>
      </g>
    </g>
  </g>
</svg>
