<svg xmlns="http://www.w3.org/2000/svg" width="25.187" height="39.573" viewBox="0 0 25.187 39.573">
  <g id="arrow_down" transform="translate(-907 -979)">
    <g id="arrow-down" transform="translate(907 979)">
      <path id="Контур_2762" data-name="Контур 2762" d="M10.652,21.9a1.8,1.8,0,0,1,2.547,0l9.518,9.521L32.236,21.9a1.8,1.8,0,1,1,2.547,2.547L23.991,35.239a1.8,1.8,0,0,1-2.547,0L10.652,24.447a1.8,1.8,0,0,1,0-2.547Z" transform="translate(-10.123 3.805)" fill-rule="evenodd"/>
      <path id="Контур_2763" data-name="Контур 2763" d="M18.674,5.625a1.8,1.8,0,0,1,1.8,1.8V39.8a1.8,1.8,0,0,1-3.6,0V7.424A1.8,1.8,0,0,1,18.674,5.625Z" transform="translate(-6.081 -5.625)" fill-rule="evenodd"/>
    </g>
  </g>
</svg>
