<svg id="bg" xmlns="http://www.w3.org/2000/svg" xmlns:xlink="http://www.w3.org/1999/xlink" width="1135" height="703" viewBox="0 0 1135 703">
  <defs>
    <clipPath id="clip-path">
      <rect id="Прямоугольник_653" data-name="Прямоугольник 653" width="1135" height="703" transform="translate(231)" fill="#fff" stroke="#707070" stroke-width="1"/>
    </clipPath>
    <clipPath id="clip-path-2">
      <rect id="Прямоугольник_652" data-name="Прямоугольник 652" width="1181" height="692" transform="translate(185)" fill="#fff" stroke="#707070" stroke-width="1"/>
    </clipPath>
    <linearGradient id="linear-gradient" x1="0.605" y1="-0.187" x2="-0.084" y2="1.641" gradientUnits="objectBoundingBox">
      <stop offset="0" stop-color="#ff4f9a"/>
      <stop offset="1" stop-color="#ff9057"/>
    </linearGradient>
    <linearGradient id="linear-gradient-2" x1="0.255" y1="-0.022" x2="0.667" y2="1.909" gradientUnits="objectBoundingBox">
      <stop offset="0" stop-color="#665eff"/>
      <stop offset="1" stop-color="#c840e9"/>
    </linearGradient>
    <linearGradient id="linear-gradient-3" x1="0.194" y1="0.355" x2="0.313" y2="1.494" gradientUnits="objectBoundingBox">
      <stop offset="0" stop-color="#fff"/>
      <stop offset="1"/>
    </linearGradient>
    <linearGradient id="linear-gradient-6" x1="0.255" y1="-0.022" x2="1.993" y2="2.156" xlink:href="#linear-gradient-2"/>
  </defs>
  <g id="Группа_масок_19" data-name="Группа масок 19" transform="translate(-231)" clip-path="url(#clip-path)">
    <g id="Компонент_30_1" data-name="Компонент 30 – 1" transform="translate(204)">
      <g id="Группа_масок_18" data-name="Группа масок 18" transform="translate(-185)" clip-path="url(#clip-path-2)">
        <g id="bg-2" data-name="bg" transform="translate(-85 26)">
          <path id="Контур_2739" data-name="Контур 2739" d="M485.827,53s-70.62-47.443-142.7,19.545-49.278,136.554,63.252,128.2c46.587-3.46,115.025-.484,174.58,43.873,83.931,62.51,157.8,173.934,194.133,173.934,62.007,0,204.624-31,204.624-64.178S1136.9,614.8,1136.9,614.8s-99.212-24.493-74.409,20.772,169.59,72.549,177.651,26.973,53.636-566.436,53.636-566.436L622.243-52.706Z" transform="translate(0 -20)" fill="url(#linear-gradient)"/>
          <path id="Контур_2737" data-name="Контур 2737" d="M590.152-75.155S161.091,191.892,389.02,210.373,553.5,557.5,781.428,391.176s131.213,305.857,334.5,268.9,384.092-112.733,384.092-112.733V-120.125Z" transform="translate(0 -20)" fill="url(#linear-gradient-2)"/>
          <path id="Контур_2738" data-name="Контур 2738" d="M568.7-9.8s-72.312,88.205,0,104.1,98.536-45.824,181.708,23.045,138,67.28,141.446,134.294,351.232,199.72,383.017,158.928-63.571-141.446,0-176.675,91.649,84.762,148.333,17.747-63.571-452.151-63.571-452.151Z" transform="translate(25 -28)" opacity="0.09" fill="url(#linear-gradient-3)"/>
          <path id="Контур_2736" data-name="Контур 2736" d="M814.419-50.856S577.092,32.935,625.526,131.5s79.361-26.474,152.013,26.8,91.815,156.762,203.455,205.2,403.439,324.363,414.821,30.611,9.5,329.98,20.882,121.714-11.382-631.338-11.382-631.338L832.1-50.856Z" transform="matrix(0.985, -0.174, 0.174, 0.985, 4.886, -0.598)" fill="url(#linear-gradient)"/>
          <circle id="Эллипс_56" data-name="Эллипс 56" cx="101" cy="101" r="101" transform="translate(1255 444)" fill="url(#linear-gradient)"/>
          <path id="Контур_446" data-name="Контур 446" d="M188.463,3.295C127.936-22.174-5.6,106.866.182,154.868s103.111,100.327,180.754,102.08S248.989,28.763,188.463,3.295Z" transform="matrix(0.208, 0.978, -0.978, 0.208, 1165.348, -188.896)" opacity="0.41" fill="url(#linear-gradient-6)"/>
          <circle id="Эллипс_55" data-name="Эллипс 55" cx="64" cy="64" r="64" transform="translate(393 149)" opacity="0.89" fill="url(#linear-gradient)"/>
        </g>
      </g>
    </g>
  </g>
</svg>
