<svg xmlns="http://www.w3.org/2000/svg" xmlns:xlink="http://www.w3.org/1999/xlink" width="18.643" height="18.643" viewBox="0 0 18.643 18.643">
  <defs>
    <linearGradient id="linear-gradient" x1="1" y1="0.177" x2="-0.486" gradientUnits="objectBoundingBox">
      <stop offset="0" stop-color="#ff2954"/>
      <stop offset="1" stop-color="#ffad35"/>
    </linearGradient>
  </defs>
  <path id="check" d="M19.206,9.884A9.322,9.322,0,1,1,9.884.563,9.322,9.322,0,0,1,19.206,9.884ZM8.806,14.82,15.722,7.9a.6.6,0,0,0,0-.85l-.85-.85a.6.6,0,0,0-.851,0l-5.64,5.64L5.747,9.21a.6.6,0,0,0-.851,0l-.85.85a.6.6,0,0,0,0,.85L7.955,14.82A.6.6,0,0,0,8.806,14.82Z" transform="translate(-0.563 -0.563)" fill="url(#linear-gradient)"/>
</svg>
