<svg xmlns="http://www.w3.org/2000/svg" xmlns:xlink="http://www.w3.org/1999/xlink" width="84.974" height="87.838" viewBox="0 0 84.974 87.838">
  <defs>
    <linearGradient id="linear-gradient" x1="1.174" y1="-0.156" x2="0.276" y2="1.687" gradientUnits="objectBoundingBox">
      <stop offset="0" stop-color="#169aff"/>
      <stop offset="1" stop-color="#c63fff"/>
    </linearGradient>
  </defs>
  <g id="CLOCK-ICON" transform="translate(-6 0)">
    <path id="Контур_2744" data-name="Контур 2744" d="M32.622,4.518c-.239-.018-.477-.018-.716-.018H31.87a13.469,13.469,0,0,0-8.184,2.771,1.327,1.327,0,0,0-.5.954,1.293,1.293,0,0,0,.422.991L40.091,23.988a1.316,1.316,0,0,0,.844.33h.073a1.244,1.244,0,0,0,.881-.44c1.688-1.945,2.991-3.45,2.991-6.716A12.8,12.8,0,0,0,32.622,4.518Z" transform="translate(46.094 -4.5)" fill="url(#linear-gradient)"/>
    <path id="Контур_2745" data-name="Контур 2745" d="M4.5,17.162c0,3.266,1.3,4.771,2.991,6.716a1.244,1.244,0,0,0,.881.44h.073a1.225,1.225,0,0,0,.844-.33l16.5-14.772a1.261,1.261,0,0,0-.073-1.945A13.469,13.469,0,0,0,17.529,4.5h-.037c-.239,0-.477,0-.716.018A12.812,12.812,0,0,0,4.5,17.162Z" transform="translate(1.5 -4.5)" fill="url(#linear-gradient)"/>
    <path id="Контур_2746" data-name="Контур 2746" d="M74.7,71.368a39.21,39.21,0,1,0-69.074-25.4,38.99,38.99,0,0,0,9.358,25.4l-7.732,7.91a3.3,3.3,0,0,0,.067,4.813,3.778,3.778,0,0,0,2.54,1.07,3.479,3.479,0,0,0,2.5-1.136l7.71-7.687a39.2,39.2,0,0,0,49.555,0l7.487,7.687a3.627,3.627,0,0,0,2.562,1.136,3.672,3.672,0,0,0,2.5-1.07,3.307,3.307,0,0,0,.29-4.813ZM47.961,46.412a3.129,3.129,0,0,1-3.119,3.119H26.57a3.119,3.119,0,0,1,0-6.239H41.722V20.565a3.119,3.119,0,0,1,6.239,0Z" transform="translate(4.483 2.677)" fill="url(#linear-gradient)"/>
  </g>
</svg>
