<svg id="instagram" xmlns="http://www.w3.org/2000/svg" width="20.099" height="20.1" viewBox="0 0 20.099 20.1">
  <path id="Контур_443" data-name="Контур 443" d="M2.58,0H17.52A2.519,2.519,0,0,1,20.1,2.58V17.52a2.519,2.519,0,0,1-2.58,2.58H2.58A2.519,2.519,0,0,1,0,17.52V2.58A2.519,2.519,0,0,1,2.58,0ZM14.642,2.233a.907.907,0,0,0-.9.9V5.3a.907.907,0,0,0,.9.9h2.272a.908.908,0,0,0,.9-.9V3.138a.907.907,0,0,0-.9-.9ZM17.828,8.5H16.059a5.879,5.879,0,0,1,.258,1.724,6.153,6.153,0,0,1-6.248,6.053,6.153,6.153,0,0,1-6.247-6.053A5.869,5.869,0,0,1,4.08,8.5H2.234v8.49a.8.8,0,0,0,.8.8h14a.8.8,0,0,0,.8-.8V8.5ZM10.069,6.095a3.976,3.976,0,0,0-4.037,3.911,3.976,3.976,0,0,0,4.037,3.911,3.976,3.976,0,0,0,4.037-3.911A3.976,3.976,0,0,0,10.069,6.095Z" fill="#6c63ff"/>
</svg>
