<svg id="bg" xmlns="http://www.w3.org/2000/svg" xmlns:xlink="http://www.w3.org/1999/xlink" width="1622.061" height="1484.328" viewBox="0 0 1622.061 1484.328">
  <defs>
    <linearGradient id="linear-gradient" x1="0.411" y1="0.228" x2="0.564" y2="1.596" gradientUnits="objectBoundingBox">
      <stop offset="0" stop-color="#6c63ff"/>
      <stop offset="1" stop-color="#c840e9"/>
    </linearGradient>
    <filter id="Прямоугольник_122" x="145.134" y="215" width="1255.866" height="1234.859" filterUnits="userSpaceOnUse">
      <feOffset dx="-15" dy="-15" input="SourceAlpha"/>
      <feGaussianBlur stdDeviation="15" result="blur"/>
      <feFlood flood-opacity="0.051"/>
      <feComposite operator="in" in2="blur"/>
      <feComposite in="SourceGraphic"/>
    </filter>
    <linearGradient id="linear-gradient-2" x1="0.28" y1="0.235" x2="0.37" y2="2.303" gradientUnits="objectBoundingBox">
      <stop offset="0" stop-color="#665eff"/>
      <stop offset="1" stop-color="#c840e9"/>
    </linearGradient>
    <filter id="Прямоугольник_172" x="439.134" y="325" width="1182.927" height="1159.328" filterUnits="userSpaceOnUse">
      <feOffset dx="-15" dy="-15" input="SourceAlpha"/>
      <feGaussianBlur stdDeviation="15" result="blur-2"/>
      <feFlood flood-opacity="0.051"/>
      <feComposite operator="in" in2="blur-2"/>
      <feComposite in="SourceGraphic"/>
    </filter>
    <filter id="Прямоугольник_577" x="8.165" y="660.186" width="502.745" height="489.142" filterUnits="userSpaceOnUse">
      <feOffset dx="-15" dy="-15" input="SourceAlpha"/>
      <feGaussianBlur stdDeviation="15" result="blur-3"/>
      <feFlood flood-opacity="0.051"/>
      <feComposite operator="in" in2="blur-3"/>
      <feComposite in="SourceGraphic"/>
    </filter>
    <linearGradient id="linear-gradient-5" x1="0.961" y1="2.959" x2="-0.01" y2="0.517" gradientUnits="objectBoundingBox">
      <stop offset="0" stop-color="#fe738e"/>
      <stop offset="1" stop-color="#ff6768"/>
    </linearGradient>
    <filter id="Контур_440" x="848.165" y="718.186" width="502.745" height="489.142" filterUnits="userSpaceOnUse">
      <feOffset dx="-15" dy="-15" input="SourceAlpha"/>
      <feGaussianBlur stdDeviation="15" result="blur-4"/>
      <feFlood flood-opacity="0.051"/>
      <feComposite operator="in" in2="blur-4"/>
      <feComposite in="SourceGraphic"/>
    </filter>
    <linearGradient id="linear-gradient-6" x1="1.219" y1="7.069" x2="-0.097" y2="-0.844" xlink:href="#linear-gradient-2"/>
    <filter id="Прямоугольник_578" x="66.165" y="803.186" width="508.997" height="495.616" filterUnits="userSpaceOnUse">
      <feOffset dx="-15" dy="-15" input="SourceAlpha"/>
      <feGaussianBlur stdDeviation="15" result="blur-5"/>
      <feFlood flood-opacity="0.051"/>
      <feComposite operator="in" in2="blur-5"/>
      <feComposite in="SourceGraphic"/>
    </filter>
    <filter id="Прямоугольник_579" x="558.165" y="940.186" width="508.997" height="495.616" filterUnits="userSpaceOnUse">
      <feOffset dx="-15" dy="-15" input="SourceAlpha"/>
      <feGaussianBlur stdDeviation="15" result="blur-6"/>
      <feFlood flood-opacity="0.051"/>
      <feComposite operator="in" in2="blur-6"/>
      <feComposite in="SourceGraphic"/>
    </filter>
    <filter id="Прямоугольник_580" x="675.165" y="764.186" width="508.997" height="495.616" filterUnits="userSpaceOnUse">
      <feOffset dx="-15" dy="-15" input="SourceAlpha"/>
      <feGaussianBlur stdDeviation="15" result="blur-7"/>
      <feFlood flood-opacity="0.051"/>
      <feComposite operator="in" in2="blur-7"/>
      <feComposite in="SourceGraphic"/>
    </filter>
    <filter id="Прямоугольник_581" x="203.272" y="1127.312" width="192.315" height="190.139" filterUnits="userSpaceOnUse">
      <feOffset dx="-15" dy="-15" input="SourceAlpha"/>
      <feGaussianBlur stdDeviation="15" result="blur-8"/>
      <feFlood flood-opacity="0.051"/>
      <feComposite operator="in" in2="blur-8"/>
      <feComposite in="SourceGraphic"/>
    </filter>
    <filter id="Прямоугольник_582" x="438.913" y="1059.224" width="184.673" height="182.226" filterUnits="userSpaceOnUse">
      <feOffset dx="-15" dy="-15" input="SourceAlpha"/>
      <feGaussianBlur stdDeviation="15" result="blur-9"/>
      <feFlood flood-opacity="0.051"/>
      <feComposite operator="in" in2="blur-9"/>
      <feComposite in="SourceGraphic"/>
    </filter>
    <filter id="Контур_441" x="438.057" y="172.362" width="983.511" height="954.063" filterUnits="userSpaceOnUse">
      <feOffset dx="-15" dy="-15" input="SourceAlpha"/>
      <feGaussianBlur stdDeviation="15" result="blur-10"/>
      <feFlood flood-opacity="0.051"/>
      <feComposite operator="in" in2="blur-10"/>
      <feComposite in="SourceGraphic"/>
    </filter>
    <linearGradient id="linear-gradient-10" x1="0.605" y1="-0.187" x2="-0.084" y2="1.641" gradientUnits="objectBoundingBox">
      <stop offset="0" stop-color="#ff4f9a"/>
      <stop offset="1" stop-color="#ff9057"/>
    </linearGradient>
  </defs>
  <g transform="matrix(1, 0, 0, 1, 0, 0)" filter="url(#Прямоугольник_122)">
    <rect id="Прямоугольник_122-2" data-name="Прямоугольник 122" width="1242.664" height="391.514" rx="195.757" transform="matrix(0.72, -0.69, 0.69, 0.72, 205.13, 1138.23)" fill="url(#linear-gradient)"/>
  </g>
  <g transform="matrix(1, 0, 0, 1, 0, 0)" filter="url(#Прямоугольник_172)">
    <rect id="Прямоугольник_172-2" data-name="Прямоугольник 172" width="1242.664" height="286.514" rx="143.257" transform="matrix(0.72, -0.69, 0.69, 0.72, 499.13, 1248.23)" fill="url(#linear-gradient-2)"/>
  </g>
  <rect id="Прямоугольник_173" data-name="Прямоугольник 173" width="1242.664" height="68.514" rx="34.257" transform="matrix(0.719, -0.695, 0.695, 0.719, 357.134, 863.227)" fill="url(#linear-gradient)"/>
  <g transform="matrix(1, 0, 0, 1, 0, 0)" filter="url(#Прямоугольник_577)">
    <rect id="Прямоугольник_577-2" data-name="Прямоугольник 577" width="562.664" height="11.514" rx="5.757" transform="matrix(0.72, -0.69, 0.69, 0.72, 68.17, 1111.05)" fill="url(#linear-gradient-2)"/>
  </g>
  <g transform="matrix(1, 0, 0, 1, 0, 0)" filter="url(#Контур_440)">
    <path id="Контур_440-2" data-name="Контур 440" d="M5.757,0H556.906a5.757,5.757,0,0,1,0,11.514H5.757A5.757,5.757,0,0,1,5.757,0Z" transform="matrix(0.72, -0.69, 0.69, 0.72, 908.17, 1169.05)" fill="url(#linear-gradient-5)"/>
  </g>
  <g transform="matrix(1, 0, 0, 1, 0, 0)" filter="url(#Прямоугольник_578)">
    <rect id="Прямоугольник_578-2" data-name="Прямоугольник 578" width="562.664" height="20.514" rx="10.257" transform="matrix(0.72, -0.69, 0.69, 0.72, 126.17, 1254.05)" fill="url(#linear-gradient-6)"/>
  </g>
  <g transform="matrix(1, 0, 0, 1, 0, 0)" filter="url(#Прямоугольник_579)">
    <rect id="Прямоугольник_579-2" data-name="Прямоугольник 579" width="562.664" height="20.514" rx="10.257" transform="matrix(0.72, -0.69, 0.69, 0.72, 618.17, 1391.05)" fill="url(#linear-gradient-6)"/>
  </g>
  <g transform="matrix(1, 0, 0, 1, 0, 0)" filter="url(#Прямоугольник_580)">
    <rect id="Прямоугольник_580-2" data-name="Прямоугольник 580" width="562.664" height="20.514" rx="10.257" transform="matrix(0.72, -0.69, 0.69, 0.72, 735.17, 1215.05)" fill="#fff"/>
  </g>
  <g transform="matrix(1, 0, 0, 1, 0, 0)" filter="url(#Прямоугольник_581)">
    <rect id="Прямоугольник_581-2" data-name="Прямоугольник 581" width="115.664" height="27.514" rx="13.757" transform="matrix(0.72, -0.69, 0.69, 0.72, 263.27, 1267.66)" fill="url(#linear-gradient-5)"/>
  </g>
  <g transform="matrix(1, 0, 0, 1, 0, 0)" filter="url(#Прямоугольник_582)">
    <rect id="Прямоугольник_582-2" data-name="Прямоугольник 582" width="115.664" height="16.514" rx="8.257" transform="matrix(0.72, -0.69, 0.69, 0.72, 498.91, 1199.57)" fill="#fff"/>
  </g>
  <g transform="matrix(1, 0, 0, 1, 0, 0)" filter="url(#Контур_441)">
    <path id="Контур_441-2" data-name="Контур 441" d="M12.463,0H1205.592a12.463,12.463,0,1,1,0,24.926H12.463A12.463,12.463,0,0,1,12.463,0Z" transform="matrix(0.72, -0.69, 0.69, 0.72, 498.06, 1078.49)" fill="url(#linear-gradient-5)"/>
  </g>
  <circle id="_1" data-name="1" cx="47" cy="47" r="47" transform="translate(25.91 1025.991) rotate(-106)" fill="url(#linear-gradient-10)"/>
  <circle id="_1-2" data-name="1" cx="67.5" cy="67.5" r="67.5" transform="translate(691.202 1101.56) rotate(71)" fill="#fff"/>
  <circle id="_1-3" data-name="1" cx="146" cy="146" r="146" transform="translate(1379.782 1227.572) rotate(156)" fill="url(#linear-gradient-10)"/>
</svg>
