<svg id="page_down" xmlns="http://www.w3.org/2000/svg" width="61.735" height="36.735" viewBox="0 0 61.735 36.735">
  <path id="Контур_437" data-name="Контур 437" d="M4.459.639,37.093-1.243a3.792,3.792,0,0,1,4.1,4.1,5.01,5.01,0,0,1-4.6,4.6L3.957,9.342a3.792,3.792,0,0,1-4.1-4.1A5.01,5.01,0,0,1,4.459.639Z" transform="translate(6.718 0.991) rotate(45)" fill="#6c63ff"/>
  <path id="Контур_453" data-name="Контур 453" d="M4.61,8.71l32.634,1.883a3.792,3.792,0,0,0,4.1-4.1,5.01,5.01,0,0,0-4.6-4.6L4.108.007a3.792,3.792,0,0,0-4.1,4.1A5.01,5.01,0,0,0,4.61,8.71Z" transform="translate(61.735 7.495) rotate(135)" fill="#6c63ff"/>
</svg>
