<svg xmlns="http://www.w3.org/2000/svg" xmlns:xlink="http://www.w3.org/1999/xlink" width="27" height="27" viewBox="0 0 27 27">
  <defs>
    <linearGradient id="linear-gradient" x1="1" y1="0.177" x2="-0.486" gradientUnits="objectBoundingBox">
      <stop offset="0" stop-color="#ff2954"/>
      <stop offset="1" stop-color="#ffad35"/>
    </linearGradient>
  </defs>
  <path id="phone" d="M6.036,13.5,6,13.4A26.736,26.736,0,0,1,4.5,6,1.5,1.5,0,0,1,6,4.5h4.5a3,3,0,0,1,3,3v3a3,3,0,0,1-3,3H9.244A24.081,24.081,0,0,0,22.5,26.755V25.5a3,3,0,0,1,3-3h3a3,3,0,0,1,3,3V30A1.75,1.75,0,0,1,30,31.5,23.132,23.132,0,0,1,22.5,30,27.228,27.228,0,0,1,6.036,13.5Z" transform="translate(-4.5 -4.5)" fill-rule="evenodd" fill="url(#linear-gradient)"/>
</svg>
