<svg xmlns="http://www.w3.org/2000/svg" xmlns:xlink="http://www.w3.org/1999/xlink" width="90.441" height="90.441" viewBox="0 0 90.441 90.441">
  <defs>
    <linearGradient id="linear-gradient" x1="1.174" y1="-0.156" x2="-0.172" y2="1.66" gradientUnits="objectBoundingBox">
      <stop offset="0" stop-color="#fc00ff"/>
      <stop offset="1" stop-color="#00dbde"/>
    </linearGradient>
  </defs>
  <g id="SETTINGS-ICON" transform="translate(0 0)">
    <path id="SETTING-ICON" d="M87.475,49.709a11.635,11.635,0,0,1,7.466-10.855,46.112,46.112,0,0,0-5.582-13.445,11.8,11.8,0,0,1-4.734,1.012A11.61,11.61,0,0,1,74,10.08,46,46,0,0,0,60.578,4.5a11.629,11.629,0,0,1-21.715,0,46.137,46.137,0,0,0-13.448,5.58A11.61,11.61,0,0,1,14.792,26.421a11.413,11.413,0,0,1-4.734-1.012A47.131,47.131,0,0,0,4.5,38.877a11.622,11.622,0,0,1,7.466,10.855A11.648,11.648,0,0,1,4.524,60.587a46.112,46.112,0,0,0,5.582,13.445A11.615,11.615,0,0,1,25.438,89.36a46.406,46.406,0,0,0,13.448,5.58,11.608,11.608,0,0,1,21.668,0A46.137,46.137,0,0,0,74,89.36,11.628,11.628,0,0,1,89.335,74.032a46.381,46.381,0,0,0,5.582-13.445A11.69,11.69,0,0,1,87.475,49.709ZM49.932,68.522A18.837,18.837,0,1,1,68.774,49.685,18.834,18.834,0,0,1,49.932,68.522Z" transform="translate(-4.5 -4.5)" fill="url(#linear-gradient)"/>
  </g>
</svg>
