<svg xmlns="http://www.w3.org/2000/svg" width="24.697" height="20.062" viewBox="0 0 24.697 20.062">
  <path id="tw" d="M24.7,2.376a10.26,10.26,0,0,1-2.531,2.616q.015.29.015.656a14.554,14.554,0,0,1-2.4,7.967,15.393,15.393,0,0,1-2.9,3.3,12.93,12.93,0,0,1-4.046,2.292,14.779,14.779,0,0,1-5.065.855A14.1,14.1,0,0,1,0,17.785a10.955,10.955,0,0,0,1.209.07A9.934,9.934,0,0,0,7.5,15.685,4.916,4.916,0,0,1,4.56,14.673a4.98,4.98,0,0,1-1.788-2.507,5.065,5.065,0,0,0,2.288-.085,4.938,4.938,0,0,1-2.909-1.746A4.9,4.9,0,0,1,1,7.115V7.053a5,5,0,0,0,2.3.634A5.033,5.033,0,0,1,1.644,5.881a4.944,4.944,0,0,1-.608-2.409A4.978,4.978,0,0,1,1.721.926a14.426,14.426,0,0,0,4.62,3.739,14.08,14.08,0,0,0,5.822,1.555,4.954,4.954,0,0,1-.133-1.153,4.881,4.881,0,0,1,1.484-3.582,5.069,5.069,0,0,1,7.281.113A10.091,10.091,0,0,0,24.011.368a4.9,4.9,0,0,1-2.225,2.8,10.126,10.126,0,0,0,2.911-.8Z" fill="#19191d"/>
</svg>
