<svg id="twitter" xmlns="http://www.w3.org/2000/svg" width="24.676" height="20.1" viewBox="0 0 24.676 20.1">
  <path id="Контур_442" data-name="Контур 442" d="M24.647,11.447a.122.122,0,0,0-.144-.033,9.87,9.87,0,0,1-2.313.7A5.13,5.13,0,0,0,24,9.579a.122.122,0,0,0-.179-.143,9.894,9.894,0,0,1-3.078,1.188A5.14,5.14,0,0,0,12,15.2,14.159,14.159,0,0,1,1.918,10.015a.12.12,0,0,0-.1-.045.122.122,0,0,0-.1.06,5.141,5.141,0,0,0,1.238,6.6,4.908,4.908,0,0,1-1.792-.579.123.123,0,0,0-.182.1v.066A5.152,5.152,0,0,0,4.59,21.126,4.932,4.932,0,0,1,2.883,21.1a.122.122,0,0,0-.14.157A5.134,5.134,0,0,0,7.2,24.807a9.869,9.869,0,0,1-5.883,1.918,10.156,10.156,0,0,1-1.181-.069.124.124,0,0,0-.13.08.123.123,0,0,0,.049.145,14.328,14.328,0,0,0,7.75,2.272A14.245,14.245,0,0,0,22.189,14.769q0-.3-.012-.588a10.24,10.24,0,0,0,2.477-2.587A.123.123,0,0,0,24.647,11.447Z" transform="translate(0 -9.053)" fill="#6c63ff"/>
</svg>
