<svg xmlns="http://www.w3.org/2000/svg" xmlns:xlink="http://www.w3.org/1999/xlink" width="71.038" height="90.029" viewBox="0 0 71.038 90.029">
  <defs>
    <linearGradient id="linear-gradient" x1="1.174" y1="-0.156" x2="0.276" y2="1.687" gradientUnits="objectBoundingBox">
      <stop offset="0" stop-color="#169aff"/>
      <stop offset="1" stop-color="#c63fff"/>
    </linearGradient>
    <linearGradient id="linear-gradient-4" x1="-0.174" y1="-0.156" x2="0.724" y2="1.687" xlink:href="#linear-gradient"/>
  </defs>
  <g id="WIRELESS-ICON" transform="translate(2.609 5)">
    <path id="Контур_2747" data-name="Контур 2747" d="M31.312,4.058a2.507,2.507,0,0,0-1.745-.683,2.612,2.612,0,0,0-1.781.7A2.37,2.37,0,0,0,27.8,7.53a26.2,26.2,0,0,1,8.471,19.263h0A26.259,26.259,0,0,1,27.8,46.056a2.328,2.328,0,0,0-.755,1.727,2.369,2.369,0,0,0,.737,1.727,2.59,2.59,0,0,0,3.525.018,30.9,30.9,0,0,0,10-22.734h0v-.018h0A30.932,30.932,0,0,0,31.312,4.058Z" transform="translate(27.117 -8.375)" fill="url(#linear-gradient)"/>
    <path id="Контур_2748" data-name="Контур 2748" d="M27.277,7.223a2.439,2.439,0,0,0-1.705-.663,2.5,2.5,0,0,0-1.686.644,2.227,2.227,0,0,0-.019,3.3,16.555,16.555,0,0,1,5.267,12.125h0a16.627,16.627,0,0,1-5.267,12.125,2.227,2.227,0,0,0,.019,3.3,2.462,2.462,0,0,0,1.686.644,2.526,2.526,0,0,0,1.705-.663,21.108,21.108,0,0,0,6.707-15.4h0v-.019h0A21.1,21.1,0,0,0,27.277,7.223Z" transform="translate(20.244 -2.214)" fill="url(#linear-gradient)"/>
    <path id="Контур_2751" data-name="Контур 2751" d="M25.117,8.662a10.491,10.491,0,0,0-3.06,20.525V80.119a3.06,3.06,0,0,0,6.12,0V29.188a10.491,10.491,0,0,0-3.06-20.525Z" transform="translate(7.788 1.872)" fill="url(#linear-gradient)"/>
    <path id="Контур_2752" data-name="Контур 2752" d="M37.05,4.058a2.507,2.507,0,0,1,1.745-.683,2.612,2.612,0,0,1,1.781.7,2.37,2.37,0,0,1-.018,3.453,26.2,26.2,0,0,0-8.471,19.263h0a26.259,26.259,0,0,0,8.471,19.263,2.328,2.328,0,0,1,.755,1.727,2.369,2.369,0,0,1-.737,1.727,2.59,2.59,0,0,1-3.525.018,30.9,30.9,0,0,1-10-22.734h0v-.018h0A30.932,30.932,0,0,1,37.05,4.058Z" transform="translate(-29.658 -8.375)" fill="url(#linear-gradient-4)"/>
    <path id="Контур_2753" data-name="Контур 2753" d="M29.854,7.223a2.439,2.439,0,0,1,1.705-.663,2.5,2.5,0,0,1,1.686.644,2.227,2.227,0,0,1,.019,3.3A16.555,16.555,0,0,0,28,22.626h0a16.627,16.627,0,0,0,5.267,12.125,2.227,2.227,0,0,1-.019,3.3,2.462,2.462,0,0,1-1.686.644,2.526,2.526,0,0,1-1.705-.663,21.108,21.108,0,0,1-6.707-15.4h0v-.019h0A21.1,21.1,0,0,1,29.854,7.223Z" transform="translate(-11.555 -2.214)" fill="url(#linear-gradient-4)"/>
  </g>
</svg>
