<svg id="youtube" xmlns="http://www.w3.org/2000/svg" width="29.331" height="20.103" viewBox="0 0 29.331 20.103">
  <path id="Контур_444" data-name="Контур 444" d="M28.824,17.91a3.684,3.684,0,0,0-3.171-2.834,100.215,100.215,0,0,0-10.983-.4,100.231,100.231,0,0,0-10.984.4A3.683,3.683,0,0,0,.517,17.91,30.385,30.385,0,0,0,0,24.728a30.376,30.376,0,0,0,.511,6.817,3.682,3.682,0,0,0,3.17,2.834,100.144,100.144,0,0,0,10.984.4,100.123,100.123,0,0,0,10.983-.4,3.684,3.684,0,0,0,3.17-2.834,30.362,30.362,0,0,0,.513-6.817A30.38,30.38,0,0,0,28.824,17.91ZM10.88,29.2V19.666l9.325,4.784Z" transform="translate(0 -14.676)" fill="#6c63ff"/>
</svg>
