<svg xmlns="http://www.w3.org/2000/svg" width="27.312" height="19.208" viewBox="0 0 27.312 19.208">
  <path id="yt" d="M13.835,20.647V12.973l7.377,3.851-7.377,3.823Zm16.2-9a5.9,5.9,0,0,0-1.086-2.712,3.908,3.908,0,0,0-2.736-1.156C22.394,7.5,16.66,7.5,16.66,7.5h-.011s-5.732,0-9.554.276A3.908,3.908,0,0,0,4.359,8.932a5.906,5.906,0,0,0-1.086,2.712A41.314,41.314,0,0,0,3,16.064v2.072a41.337,41.337,0,0,0,.273,4.421,5.9,5.9,0,0,0,1.086,2.711A4.621,4.621,0,0,0,7.37,26.435c2.185.208,9.285.273,9.285.273s5.74-.008,9.56-.284a3.907,3.907,0,0,0,2.736-1.156,5.9,5.9,0,0,0,1.086-2.711,41.337,41.337,0,0,0,.273-4.421V16.064a41.292,41.292,0,0,0-.273-4.421Z" transform="translate(-3 -7.5)" fill="#19191d" fill-rule="evenodd"/>
</svg>
